<?xml version="1.0" encoding="UTF-8" standalone="no"?>
<!-- Created with Inkscape (http://www.inkscape.org/) -->

<svg
   width="635.00012mm"
   height="145.52084mm"
   viewBox="0 0 635.00012 145.52084"
   version="1.1"
   id="svg1"
   xml:space="preserve"
   inkscape:version="1.3.2 (091e20e, 2023-11-25, custom)"
   sodipodi:docname="CAS Media.svg"
   xmlns:inkscape="http://www.inkscape.org/namespaces/inkscape"
   xmlns:sodipodi="http://sodipodi.sourceforge.net/DTD/sodipodi-0.dtd"
   xmlns:xlink="http://www.w3.org/1999/xlink"
   xmlns="http://www.w3.org/2000/svg"
   xmlns:svg="http://www.w3.org/2000/svg"><sodipodi:namedview
     id="namedview1"
     pagecolor="#ffffff"
     bordercolor="#000000"
     borderopacity="0.25"
     inkscape:showpageshadow="2"
     inkscape:pageopacity="0.0"
     inkscape:pagecheckerboard="0"
     inkscape:deskcolor="#ffffff"
     inkscape:document-units="mm"
     showguides="true"
     inkscape:export-bgcolor="#ffffff00"
     inkscape:zoom="0.056568543"
     inkscape:cx="4083.5417"
     inkscape:cy="5170.7183"
     inkscape:window-width="1366"
     inkscape:window-height="705"
     inkscape:window-x="-8"
     inkscape:window-y="-8"
     inkscape:window-maximized="1"
     inkscape:current-layer="layer4"
     showgrid="false"><inkscape:grid
       id="grid146"
       units="mm"
       originx="-1698.2517"
       originy="-922.98533"
       spacingx="0.99999998"
       spacingy="1"
       empcolor="#0099e5"
       empopacity="0.30196078"
       color="#0099e5"
       opacity="0.14901961"
       empspacing="5"
       dotted="false"
       gridanglex="30"
       gridanglez="30"
       visible="false" /></sodipodi:namedview><defs
     id="defs1" /><g
     inkscape:groupmode="layer"
     id="layer4"
     inkscape:label="Layer 4"
     transform="translate(-664.58685,-930.00121)"><circle
       style="opacity:0.5;fill:none;fill-opacity:1;stroke-width:2.11668"
       id="circle146"
       cx="-260.97385"
       cy="2121.2053"
       r="88.746635"
       transform="matrix(-0.98844758,0.15156316,0.15156316,0.98844758,0,0)" /><circle
       style="fill:none;fill-opacity:1;stroke-width:2.11667"
       id="path143"
       cx="-1750.0702"
       cy="-1226.733"
       r="69.453117"
       transform="rotate(-140.76043)" /><g
       id="g118"><rect
         style="fill:none;fill-opacity:1;stroke:none;stroke-width:2.11667"
         id="rect106"
         width="635"
         height="145.52084"
         x="664.58691"
         y="930.00122"
         ry="0"
         inkscape:export-filename="..\..\Red Cape Intel\Clients\CAS\CAS Media\CAS Logo\cas_logo_bg clear_512x512.svg"
         inkscape:export-xdpi="96"
         inkscape:export-ydpi="96" /><g
         id="g115"
         inkscape:export-filename="..\..\Red Cape Intel\Clients\CAS\CAS Media\CAS Logo\cas_logo.svg"
         inkscape:export-xdpi="96"
         inkscape:export-ydpi="96"
         transform="matrix(1.2839312,0,0,1.2739717,376.99503,-87.897012)"
         style="stroke-width:0.781895"><path
           style="fill:#a792c1;fill-opacity:1;stroke-width:0.781895"
           d="m 284.65795,842.91139 c -0.097,-0.097 -0.17638,-1.1965 -0.17638,-2.4433 v -2.26691 l -0.59532,1.10968 c -0.78382,1.46107 -2.54086,3.29403 -3.06148,3.19377 -0.76091,-0.14653 -2.7144,-6.16236 -3.79399,-11.68368 -0.4437,-2.26922 -0.57443,-3.8896 -0.56861,-7.04775 0.009,-4.76123 0.58219,-7.90546 1.92794,-10.57137 0.83382,-1.6518 3.12617,-4.1543 3.46715,-3.78501 0.62761,0.67973 3.20842,9.67542 3.57014,12.44409 0.10023,0.76725 0.2723,1.45066 0.38237,1.51869 0.11007,0.068 0.40152,-0.5002 0.64766,-1.26271 0.90244,-2.79566 2.68,-6.13131 4.08275,-7.66139 1.237,-1.3493 3.76149,-3.11772 4.45065,-3.11772 0.41425,0 0.63415,7.19742 0.33746,11.04529 -0.14862,1.92757 -0.44907,4.36835 -0.66767,5.42396 -0.86995,4.20103 -2.91632,9.38691 -4.55838,11.55178 -1.83815,2.42342 -4.70363,4.29324 -5.44429,3.55258 z"
           id="path107" /><path
           style="fill:#a2c8e8;fill-opacity:1;stroke-width:0.781895"
           d="m 267.94511,844.45484 c -4.3645,-2.32521 -5.54107,-3.0144 -7.64879,-4.48036 -2.62174,-1.82348 -3.28052,-2.37742 -5.58038,-4.69238 -3.91848,-3.9442 -5.72898,-6.79471 -6.40962,-10.09153 -0.49987,-2.42115 -0.34059,-3.53404 0.5058,-3.53404 1.1777,0 9.54459,4.81286 12.36769,7.11422 l 1.17221,0.95558 -0.82332,-1.5875 c -2.26985,-4.37666 -3.11357,-7.43486 -2.90216,-10.5193 0.13759,-2.00745 0.65513,-3.37133 1.27929,-3.37133 0.75661,0 6.02984,5.11749 8.86064,8.59896 2.64031,3.2472 5.05519,7.58774 6.34341,11.40172 1.23224,3.64828 1.09098,8.80075 -0.24835,9.05868 -0.2848,0.0548 -1.20441,-0.56273 -2.33758,-1.56984 -1.46778,-1.30448 -1.82376,-1.52198 -1.66126,-1.01499 0.74932,2.3378 0.83551,3.99812 0.23852,4.59511 -0.22868,0.22868 -0.49657,0.41349 -0.59532,0.4107 -0.0987,-0.003 -1.2511,-0.57596 -2.56078,-1.2737 z"
           id="path108" /><path
           style="fill:#a2c8e8;fill-opacity:1;stroke-width:0.781895"
           d="m 293.77393,851.02462 c -0.79013,-0.18653 -1.33865,-0.62354 -1.35081,-1.07619 -0.002,-0.0829 0.40629,-0.6302 0.90781,-1.21612 l 0.91187,-1.06532 -1.9702,0.12644 -1.9702,0.12644 v -0.70106 c 0,-0.83567 2.51768,-5.76507 4.54717,-8.90298 3.90948,-6.04465 9.18673,-11.06751 13.64388,-12.98617 1.48112,-0.63758 4.74798,-1.06474 5.43573,-0.71076 0.33844,0.1742 0.4249,0.41201 0.29957,0.82406 -0.19735,0.64886 -1.6103,3.52873 -2.42607,4.94482 -0.29341,0.50933 -0.95713,1.66813 -1.47493,2.57513 -0.5178,0.90699 -1.26087,2.06785 -1.65126,2.57968 -0.3904,0.51184 -0.61128,0.93061 -0.49086,0.93061 0.12043,0 1.21544,-0.42799 2.43335,-0.9511 2.65302,-1.13949 5.87636,-1.75799 7.95583,-1.52656 1.58411,0.17629 3.21472,0.72234 3.21044,1.0751 -0.004,0.34604 -1.75863,2.46551 -3.63707,4.39381 -5.4219,5.56582 -12.22064,9.97294 -17.44706,11.30963 -2.07462,0.5306 -5.25385,0.64559 -6.92719,0.25054 z"
           id="path109" /><path
           style="fill:#a792c1;fill-opacity:1;stroke-width:0.781895"
           d="m 240.93366,858.32103 c -2.50225,-0.56852 -5.509,-1.93269 -6.83777,-3.10232 -1.637,-1.44095 -1.58211,-1.89828 0.31328,-2.61005 2.61897,-0.9835 7.49317,-2.30036 10.35811,-2.79844 l 2.75133,-0.47833 -1.693,-0.5538 c -4.8116,-1.57392 -10.01064,-5.79895 -9.71246,-7.8929 0.0708,-0.49691 0.3169,-0.60466 1.80175,-0.78875 2.40103,-0.29767 9.95274,-0.0219 12.96458,0.47349 3.2866,0.54054 7.25283,1.77125 10.05417,3.11976 1.72186,0.82887 2.68466,1.52097 4.10797,2.953 1.02245,1.02872 2.02577,2.27301 2.2296,2.7651 0.33758,0.81499 0.32657,0.9269 -0.12364,1.2561 -0.31634,0.23131 -1.26173,0.36639 -2.62648,0.37527 -2.08825,0.0136 -2.11873,0.0231 -1.47704,0.46302 1.09855,0.75306 2.39304,1.94949 2.67079,2.46847 0.21645,0.40443 0.11725,0.58022 -0.55975,0.99193 -1.02496,0.62331 -6.35285,2.19371 -10.04229,2.95997 -3.56206,0.73981 -11.67351,0.96776 -14.17915,0.39848 z"
           id="path110" /><path
           style="fill:#ebe6a2;fill-opacity:1;stroke-width:0.781895"
           d="m 277.93313,864.61785 c -0.90951,-0.21999 -1.65365,-0.51081 -1.65365,-0.64627 0,-0.13546 -0.1538,-0.2463 -0.34178,-0.2463 -0.61556,0 -2.52727,-2.21716 -3.21926,-3.73362 -1.31727,-2.88669 -0.71193,-6.32384 1.52485,-8.65822 1.29823,-1.35488 3.69733,-2.41494 5.47578,-2.4195 3.22341,-0.008 6.75263,2.74936 7.64864,5.97642 1.323,4.76491 -1.78275,9.29515 -6.85489,9.99896 -0.50933,0.0707 -1.67019,-0.0515 -2.57969,-0.27147 z"
           id="path111" /><path
           style="fill:#acd09d;fill-opacity:1;stroke-width:0.781895"
           d="m 312.92428,871.93608 c -7.04032,-0.6334 -13.28254,-2.63101 -17.03427,-5.45123 -1.82057,-1.36854 -3.55783,-3.72387 -3.42729,-4.6466 0.0789,-0.55763 0.25646,-0.64105 1.61517,-0.7588 l 1.52654,-0.13229 -1.19351,-0.92604 c -1.14899,-0.8915 -1.68288,-1.81092 -1.35738,-2.33759 0.16501,-0.267 5.75202,-2.10307 8.62594,-2.83477 3.0261,-0.77045 6.38947,-1.16802 9.92188,-1.17285 5.2462,-0.007 9.03606,0.85477 11.76196,2.67506 1.77585,1.18586 2.49319,2.0435 2.24663,2.68602 -0.23492,0.6122 -7.74619,2.90663 -11.49505,3.51134 -1.12502,0.18147 -1.15418,0.20705 -0.52917,0.46425 4.84895,1.99537 7.30729,3.59058 8.95495,5.81082 1.1427,1.5398 1.46136,2.42914 1.00576,2.80697 -0.42524,0.35266 -7.75543,0.56363 -10.62216,0.30571 z"
           id="path112" /><path
           style="fill:#acd09d;fill-opacity:1;stroke-width:0.781895"
           d="m 245.32323,887.29634 c 0,-1.32743 5.01815,-10.32293 6.70278,-12.01534 0.8029,-0.80662 0.31993,-0.78788 -1.34414,0.0521 -3.1082,1.56902 -4.93802,2.01531 -8.26906,2.01681 -3.25263,10e-4 -4.23333,-0.27657 -4.23333,-1.20021 0,-0.69974 5.31681,-6.17631 8.34652,-8.59732 5.2171,-4.16893 10.46703,-6.76203 15.006,-7.41192 1.76462,-0.25266 4.56883,0.0919 5.25228,0.6453 0.74077,0.59983 0.55089,1.15001 -0.95365,2.76331 -0.65605,0.70346 -1.19282,1.3113 -1.19282,1.35073 0,0.0394 0.98227,0.0592 2.18282,0.0439 2.07775,-0.0265 2.18691,10e-4 2.26807,0.57292 0.11466,0.80791 -2.6748,6.01911 -5.31072,9.92136 -5.25273,7.7762 -11.80335,12.62894 -17.04756,12.62894 -1.37777,0 -1.40719,-0.0161 -1.40719,-0.77061 z"
           id="path113" /><path
           style="fill:#a792c1;fill-opacity:1;stroke-width:0.781895"
           d="m 297.03012,896.03918 c -9.6302,-8.57245 -15.11704,-19.57826 -13.04298,-26.16233 0.2046,-0.64949 0.42309,-0.8599 0.89292,-0.8599 0.34212,0 0.78475,0.14883 0.98361,0.33073 0.19886,0.1819 0.65663,0.59402 1.01727,0.91583 l 0.6557,0.5851 -0.006,-1.47817 c -0.01,-2.31533 0.30167,-2.35638 3.94954,-0.52074 3.29561,1.65837 8.55097,5.05037 10.45474,6.74786 0.64972,0.57932 1.29319,0.98415 1.42995,0.89963 0.13675,-0.0845 0.17919,-0.0413 0.0943,0.096 -0.0849,0.13735 0.62249,1.01895 1.57194,1.95911 3.09853,3.06822 5.11221,6.588 5.68191,9.93161 0.33709,1.97841 0.23424,2.67031 -0.4351,2.92716 -0.54519,0.20921 -6.19916,-2.68073 -9.20465,-4.70481 -1.49616,-1.00761 -2.30103,-1.42161 -2.16527,-1.11374 0.11885,0.2695 0.57419,1.50204 1.01187,2.73896 1.3153,3.71716 1.24943,9.46813 -0.11145,9.73018 -0.22882,0.0441 -1.47898,-0.86608 -2.77812,-2.02253 z"
           id="path114" /><path
           style="fill:#a2c8e8;fill-opacity:1;stroke-width:0.781895"
           d="m 276.60113,902.2883 c -0.61606,-1.23508 -2.44663,-7.47573 -2.87724,-9.80888 -0.51309,-2.78005 -0.75198,-3.24708 -1.0185,-1.99122 -0.29857,1.40689 -2.24991,4.96341 -3.63914,6.63275 -1.1514,1.38355 -3.55528,3.10805 -4.34127,3.11435 -0.52824,0.004 -0.67432,-1.47279 -0.66399,-6.71371 0.0153,-7.77455 0.9652,-12.60048 3.49853,-17.7744 1.48005,-3.02278 3.49397,-5.44466 5.36262,-6.44893 1.64588,-0.88454 2.03442,-0.55309 2.03442,1.73546 0,0.94854 0.11586,1.6874 0.26459,1.6874 0.14552,0 0.26458,-0.0976 0.26458,-0.21696 0,-0.46324 1.91891,-2.42888 2.37114,-2.42888 0.57699,0 1.25881,1.57525 2.4028,5.55138 2.26342,7.86684 2.7281,16.40373 1.14859,21.10138 -0.73155,2.1757 -1.69883,3.92198 -2.80194,5.05851 -1.21363,1.25039 -1.58538,1.34341 -2.00519,0.50175 z"
           id="path115" /></g><path
         id="path116"
         style="font-size:96px;line-height:1;font-family:'Arbutus Slab';-inkscape-font-specification:'Arbutus Slab';letter-spacing:0.5px;white-space:pre;fill:#3f4d59;fill-opacity:1;stroke-width:2.11667"
         d="m 1232.2621,983.62755 c -0.8184,0 -1.5217,0.28768 -2.11,0.86318 -0.5882,0.56267 -0.8823,1.25324 -0.8823,2.07173 0,0.80564 0.2877,1.48957 0.8631,2.05239 0.5883,0.54983 1.2981,0.82482 2.1292,0.82482 0.8313,0 1.5346,-0.27499 2.1101,-0.82482 0.5882,-0.56282 0.8823,-1.24675 0.8823,-2.05239 0,-0.81849 -0.2941,-1.50906 -0.8823,-2.07173 -0.5883,-0.5755 -1.2916,-0.86318 -2.1101,-0.86318 z m -73.2815,0.0387 c -2.532,0 -4.6612,0.70341 -6.3876,2.11008 -1.7136,1.40667 -2.5704,3.2481 -2.5704,5.52444 0,2.91558 1.6689,5.44758 5.0065,7.59602 0.908,0.58819 2.1484,1.32361 3.7214,2.20591 1.5856,0.8695 2.711,1.5793 3.376,2.1291 1.2788,1.0615 1.9182,2.2125 1.9182,3.4529 0,0.7161 -0.1535,1.3426 -0.4604,1.8798 -0.8568,1.5601 -2.4425,2.3402 -4.7571,2.3402 -2.3019,0 -3.9515,-0.4988 -4.949,-1.4962 0.7417,-0.5755 1.1126,-1.2724 1.1126,-2.0909 0,-0.8183 -0.2622,-1.4961 -0.7865,-2.0332 -0.5115,-0.5372 -1.1701,-0.8057 -1.9757,-0.8057 -0.422,0 -0.8121,0.084 -1.1701,0.2494 -1.1637,0.5114 -1.7456,1.4962 -1.7456,2.954 0,1.4449 0.8504,2.7302 2.5512,3.8555 1.7136,1.1127 3.9835,1.669 6.8096,1.669 2.8389,0 5.1472,-0.6587 6.9247,-1.9759 1.7903,-1.3172 2.6855,-3.1905 2.6855,-5.6203 0,-2.7366 -1.8095,-5.2558 -5.4285,-7.55761 -0.9591,-0.61386 -2.142,-1.31078 -3.5487,-2.0909 -1.3938,-0.77997 -2.4872,-1.54077 -3.2801,-2.28254 -1.2021,-1.11265 -1.8031,-2.34037 -1.8031,-3.68301 0,-0.72878 0.1407,-1.34264 0.422,-1.84143 0.8312,-1.45787 2.3338,-2.1868 4.5078,-2.1868 2.1867,0 3.6126,0.4476 4.2775,1.3428 -0.8184,0.56266 -1.2276,1.33629 -1.2276,2.32104 0,0.35789 0.07,0.69692 0.211,1.01661 0.4732,1.06146 1.3172,1.59211 2.532,1.59211 0.7929,0 1.4451,-0.28134 1.9566,-0.844 0.5243,-0.57551 0.7864,-1.28511 0.7864,-2.12926 0,-1.5601 -0.8184,-2.88372 -2.4552,-3.97069 -1.6241,-1.08698 -3.7086,-1.63047 -6.2534,-1.63047 z m 33.9265,9.32253 c -0.3324,0 -0.6457,0.0448 -0.9399,0.13456 -0.2813,0.0773 -0.7608,0.21096 -1.4386,0.40274 -0.665,0.1791 -1.6049,0.26865 -2.8198,0.26865 v 2.10993 h 1.1701 c 0.7034,0 1.1318,0.14074 1.2852,0.42208 0.1663,0.28133 0.2494,0.88236 0.2494,1.80307 v 10.56929 c 0,0.3837 -0.032,0.7034 -0.096,0.959 -0.051,0.2558 -0.2174,0.4987 -0.4987,0.729 -0.2814,0.2173 -0.9719,0.326 -2.0717,0.326 v 2.1101 h 10.8954 v -2.1101 c -1.8287,0 -2.9285,-0.096 -3.2993,-0.2877 -0.3581,-0.2046 -0.5819,-0.4474 -0.6714,-0.7289 -0.077,-0.2942 -0.1151,-0.6843 -0.1151,-1.1701 v -10.26234 c 0.4476,-0.69042 0.9655,-1.23391 1.5538,-1.63047 0.601,-0.40955 1.1637,-0.65253 1.688,-0.72893 -0.051,0.76744 0.1534,1.40667 0.6138,1.9183 0.4731,0.51132 1.0678,0.76636 1.7839,0.76636 0.7289,0 1.3492,-0.25504 1.8607,-0.76636 0.5115,-0.51163 0.7673,-1.17003 0.7673,-1.97583 0,-0.8055 -0.2686,-1.48339 -0.8057,-2.03322 -0.5243,-0.54998 -1.266,-0.82482 -2.2251,-0.82482 -0.4987,0 -0.9975,0.0773 -1.4962,0.23014 -1.3939,0.4476 -2.6407,1.31727 -3.7405,2.60872 v -0.38357 c 0,-0.86968 -0.115,-1.49622 -0.3453,-1.87979 -0.2174,-0.38356 -0.6522,-0.5755 -1.3043,-0.5755 z m 39.8538,0 c -0.3453,0 -0.665,0.0448 -0.9591,0.13456 -0.2941,0.0773 -0.7993,0.2108 -1.5154,0.40274 -0.7161,0.17895 -1.7008,0.26865 -2.954,0.26865 v 2.10993 h 1.3811 c 0.7033,0 1.1317,0.14074 1.2852,0.42208 0.1662,0.28133 0.2493,0.88236 0.2493,1.80307 v 10.56929 c 0,0.3835 -0.032,0.7034 -0.096,0.959 -0.064,0.2558 -0.2493,0.4988 -0.5562,0.729 -0.2942,0.2174 -1.0359,0.326 -2.2251,0.326 v 2.1101 h 9.8787 v -2.1101 c -1.2149,0 -2.0397,-0.1661 -2.4745,-0.4986 -0.2557,-0.2047 -0.3836,-0.7098 -0.3836,-1.5154 v -13.25472 c 0,-0.85684 -0.1088,-1.47704 -0.3261,-1.86061 -0.2046,-0.3964 -0.6394,-0.59468 -1.3044,-0.59468 z m 13.4338,0 c -3.1842,0 -5.6012,1.01676 -7.2508,3.04997 -1.6369,2.02054 -2.4553,4.41805 -2.4553,7.19305 0,3.4017 0.9846,5.9784 2.954,7.7305 1.6752,1.496 3.7085,2.2443 6.0999,2.2443 2.4041,0 4.3031,-0.6075 5.697,-1.8224 1.4067,-1.2148 2.11,-2.6151 2.11,-4.2009 h -2.6279 c -0.2942,1.1893 -0.8248,2.1038 -1.5921,2.7432 -0.7673,0.6393 -1.7008,0.959 -2.8006,0.959 -1.4962,0 -2.743,-0.6585 -3.7404,-1.9758 -0.9975,-1.3171 -1.4963,-3.2736 -1.4963,-5.8697 0,-1.3939 0.128,-2.5896 0.3837,-3.58688 0.7545,-2.83902 2.3785,-4.25837 4.8722,-4.25837 1.33,0 2.3658,0.44745 3.1075,1.34264 -0.7545,0.49879 -1.1317,1.18921 -1.1317,2.07173 0,0.37073 0.064,0.7096 0.1918,1.0166 0.422,1.03578 1.1893,1.55368 2.3018,1.55368 0.7801,0 1.4195,-0.2621 1.9182,-0.7864 0.5115,-0.53714 0.7673,-1.1957 0.7673,-1.97582 0,-1.59845 -0.697,-2.90274 -2.0909,-3.913 -1.3939,-1.01027 -3.133,-1.5154 -5.2174,-1.5154 z m -67.1753,7.7e-4 c -3.0435,0 -5.3838,0.97825 -7.0206,2.93491 -1.6241,1.94382 -2.4361,4.50784 -2.4361,7.69184 0,3.1843 1.023,5.6524 3.0691,7.4043 1.7136,1.4578 3.7469,2.1868 6.0999,2.1868 2.353,0 4.22,-0.4732 5.6011,-1.4196 1.3939,-0.9462 2.2379,-2.1035 2.532,-3.4719 l -2.8581,0.019 c -0.8951,1.7008 -2.3722,2.5512 -4.431,2.5512 -1.5346,0 -2.8262,-0.601 -3.8748,-1.8032 -1.0358,-1.2021 -1.5537,-2.9028 -1.5537,-5.1024 h 13.3123 c 0.026,-0.5115 0.038,-1.3423 0.038,-2.4929 0,-1.1508 -0.2366,-2.37202 -0.7097,-3.66362 -1.1765,-3.22258 -3.7661,-4.83387 -7.7687,-4.83387 z m 84.8738,0 c -3.0435,0 -5.3837,0.97825 -7.0206,2.93491 -1.624,1.94382 -2.4361,4.50784 -2.4361,7.69184 0,3.1843 1.023,5.6524 3.0691,7.4043 1.7136,1.4578 3.7469,2.1868 6.0999,2.1868 2.353,0 4.22,-0.4732 5.6011,-1.4196 1.3939,-0.9462 2.2379,-2.1035 2.532,-3.4719 l -2.8581,0.019 c -0.8951,1.7008 -2.3721,2.5512 -4.431,2.5512 -1.5346,0 -2.8262,-0.601 -3.8748,-1.8032 -1.0358,-1.2021 -1.5537,-2.9028 -1.5537,-5.1024 h 13.3123 c 0.026,-0.5115 0.038,-1.3423 0.038,-2.4929 0,-1.1508 -0.2365,-2.37202 -0.7097,-3.66362 -1.1765,-3.22258 -3.7661,-4.83387 -7.7687,-4.83387 z m 16.4773,0.0186 c -2.0716,0 -3.7788,0.48596 -5.1216,1.45787 -1.3299,0.9719 -1.9949,2.26335 -1.9949,3.87464 0,2.09724 1.3108,3.88764 3.9323,5.37104 0.8185,0.4603 2.0461,1.0933 3.683,1.899 2.3529,1.151 3.5294,2.2571 3.5294,3.3184 0,0.4476 -0.1279,0.8122 -0.3836,1.0935 -0.6138,0.7034 -1.6816,1.055 -3.2034,1.055 -1.509,0 -2.775,-0.2942 -3.798,-0.8824 0.4348,-0.4347 0.6522,-0.9656 0.6522,-1.5921 0,-0.6265 -0.2366,-1.1637 -0.7098,-1.6113 -0.4731,-0.4604 -1.0741,-0.6906 -1.8031,-0.6906 -0.7161,0 -1.3107,0.243 -1.7839,0.729 -0.4604,0.4859 -0.6905,1.0806 -0.6905,1.7839 0,1.2916 0.7417,2.3465 2.2251,3.165 1.4834,0.8183 3.3632,1.2277 5.6395,1.2277 2.289,0 4.1241,-0.4732 5.5052,-1.4195 1.3811,-0.9592 2.0717,-2.321 2.0717,-4.0857 0,-1.7777 -1.3364,-3.3954 -4.0091,-4.8531 -0.7289,-0.3964 -1.4195,-0.7736 -2.0716,-1.1318 -0.6522,-0.3579 -1.2852,-0.6904 -1.8991,-0.9974 -0.601,-0.3069 -1.1445,-0.6202 -1.6304,-0.93996 -0.4859,-0.33252 -0.8824,-0.67773 -1.1893,-1.03578 -0.3069,-0.37088 -0.4604,-0.74811 -0.4604,-1.13183 0,-0.39625 0.07,-0.74796 0.211,-1.05497 0.5244,-1.07414 1.5282,-1.61129 3.0116,-1.61129 1.4834,0 2.5512,0.32619 3.2034,0.97825 -0.3453,0.40925 -0.5179,0.90804 -0.5179,1.49622 0,0.58835 0.2238,1.1125 0.6713,1.57294 0.4604,0.4476 1.1382,0.67139 2.0333,0.67139 0.55,0 1.1254,-0.30051 1.7264,-0.90153 0.3453,-0.34537 0.5179,-0.87602 0.5179,-1.59211 0,-1.22757 -0.7097,-2.225 -2.1292,-2.99244 -1.4067,-0.77998 -3.1458,-1.17004 -5.2175,-1.17004 z m -76.755,0.36439 v 2.11008 c 0.9719,0 1.6049,0.13456 1.899,0.40275 0.3069,0.26865 0.6522,0.81848 1.0358,1.64964 l 7.2508,15.28809 h 2.0908 l 7.0398,-15.28809 c 0.3197,-0.71609 0.6906,-1.23391 1.1126,-1.55375 0.422,-0.33237 1.0358,-0.49864 1.8414,-0.49864 v -2.11008 h -8.7469 v 2.11008 c 1.4962,0 2.4616,0.15992 2.8964,0.47946 0.4476,0.31985 0.5116,0.84416 0.1919,1.57293 l -4.6229,10.51179 -4.3351,-10.51179 c -0.3197,-0.7928 -0.3197,-1.3298 0,-1.61129 0.3197,-0.29401 1.1893,-0.4411 2.6087,-0.4411 v -2.11008 z m -24.5769,1.86076 c 2.6599,0 3.9898,1.9565 3.9898,5.8697 0,0.2301 -0.01,0.4668 -0.019,0.7097 h -8.8428 c 0.077,-2.05887 0.5306,-3.67016 1.3619,-4.83386 0.844,-1.16369 2.0141,-1.74554 3.5103,-1.74554 z m 84.8738,0 c 2.6599,0 3.9899,1.9565 3.9899,5.8697 0,0.2301 -0.01,0.4668 -0.019,0.7097 h -8.8429 c 0.077,-2.05887 0.5307,-3.67016 1.3619,-4.83386 0.844,-1.16369 2.0141,-1.74554 3.5103,-1.74554 z" /><path
         id="path117"
         style="font-size:96px;line-height:1;font-family:'Arbutus Slab';-inkscape-font-specification:'Arbutus Slab';letter-spacing:0.5px;white-space:pre;fill:#3f4d59;fill-opacity:1;stroke-width:2.11667"
         d="m 1087.5294,983.62755 c -0.8185,0 -1.5217,0.28768 -2.11,0.86318 -0.5882,0.56267 -0.8824,1.25324 -0.8824,2.07173 0,0.80564 0.2877,1.48957 0.8632,2.05239 0.5882,0.54983 1.2979,0.82482 2.1292,0.82482 0.8312,0 1.5346,-0.27499 2.11,-0.82482 0.5883,-0.56282 0.8824,-1.24675 0.8824,-2.05239 0,-0.81849 -0.2941,-1.50906 -0.8824,-2.07173 -0.5882,-0.5755 -1.2916,-0.86318 -2.11,-0.86318 z m -136.69712,0.42208 -10.35826,24.57207 c -0.29411,0.7416 -0.71611,1.2788 -1.26601,1.6113 -0.53709,0.3197 -1.33635,0.4795 -2.39775,0.4795 v 2.1101 h 10.49254 v -2.1101 c -1.73917,0 -2.84533,-0.1531 -3.31847,-0.4603 -0.47318,-0.3197 -0.5627,-0.8632 -0.26855,-1.6305 l 1.97574,-4.8147 h 11.14473 l 1.72637,4.8147 c 0.15343,0.3964 0.23658,0.729 0.24937,0.9974 0.0255,0.2685 -0.12157,0.5179 -0.44118,0.7482 -0.30692,0.2301 -1.30438,0.3452 -2.9924,0.3452 v 2.1101 h 11.83529 v -2.1101 c -1.22767,0 -2.0525,-0.1408 -2.47449,-0.422 -0.42202,-0.2941 -0.80565,-0.8505 -1.15092,-1.6688 l -9.47588,-24.57207 z m 120.21342,3.66368 -0.019,1.70718 c -0.038,1.40683 -0.2877,2.41709 -0.7481,3.0308 -0.4476,0.61386 -1.1573,0.92072 -2.1292,0.92072 h -0.7097 v 2.30186 h 1.5729 c 0.3964,0 0.6522,0.0835 0.7673,0.24932 0.1279,0.15312 0.1918,0.47977 0.1918,0.97841 v 9.5909 c 0,4.4758 2.0141,6.7138 6.0423,6.7138 0.8312,0 1.5793,-0.1408 2.2443,-0.4221 2.0589,-0.8568 3.1522,-2.5959 3.2801,-5.2174 h -2.2251 c -0.4092,2.2123 -1.2852,3.3184 -2.6279,3.3184 -0.3069,0 -0.6138,-0.063 -0.9208,-0.1919 -1.0997,-0.4603 -1.6496,-1.8798 -1.6496,-4.2584 v -10.76103 h 5.8889 v -2.30186 h -5.8889 v -5.6587 z m -119.40778,1.55376 4.45023,12.42983 h -9.53345 z m 184.26198,3.2034 c -1.8159,0 -3.2929,0.6714 -4.431,2.01419 -1.3428,-0.99758 -3.1331,-1.49622 -5.371,-1.49622 -2.2379,0 -4.1881,0.64588 -5.8505,1.93732 -1.6496,1.27876 -2.4744,3.069 -2.4744,5.37104 0,1.2275 0.3452,2.4361 1.0358,3.6253 0.6905,1.1765 1.6368,1.995 2.8389,2.4553 -1.4195,0.6394 -2.1292,1.5217 -2.1292,2.6471 0,1.1253 0.454,1.9566 1.3619,2.4936 -2.6471,1.3556 -3.9706,3.1204 -3.9706,5.2943 0,0.844 0.1726,1.6177 0.5179,2.3211 1.1381,2.3147 3.9834,3.4719 8.536,3.4719 2.9028,0 5.3581,-0.6202 7.3658,-1.8606 2.0078,-1.2278 3.0116,-2.8711 3.0116,-4.9298 0,-2.0589 -0.812,-3.5168 -2.4361,-4.3736 -0.7673,-0.3964 -1.6816,-0.6841 -2.743,-0.8632 -1.0487,-0.1918 -2.385,-0.3515 -4.0091,-0.4794 -1.6113,-0.1408 -2.7622,-0.2942 -3.4527,-0.4605 -0.6906,-0.1662 -1.0358,-0.4411 -1.0358,-0.8248 0,-0.1789 0.045,-0.3387 0.1342,-0.4795 0.3197,-0.5755 0.9399,-0.9655 1.8607,-1.1701 0.3964,0.039 0.9782,0.057 1.7455,0.057 0.7801,0 1.6561,-0.1661 2.6279,-0.4987 0.9719,-0.3325 1.8223,-0.8056 2.5512,-1.4195 0.7418,-0.6265 1.3236,-1.3746 1.7456,-2.2443 0.4348,-0.8824 0.6522,-2.0205 0.6522,-3.41435 0,-1.40667 -0.3837,-2.66625 -1.1509,-3.7789 0.3836,-0.3579 0.8056,-0.62655 1.266,-0.80565 0.038,0.66506 0.2494,1.15735 0.633,1.47704 0.3964,0.31969 0.876,0.47962 1.4386,0.47962 0.5627,0 1.0422,-0.19179 1.4387,-0.57551 0.4092,-0.3964 0.6138,-0.92721 0.6138,-1.59211 0,-0.67774 -0.2366,-1.24041 -0.7097,-1.688 -0.4604,-0.46044 -0.9975,-0.69058 -1.6113,-0.69058 z m -95.3152,0.5172 c -0.3325,0 -0.6394,0.0448 -0.9207,0.13455 -0.2813,0.0773 -0.7545,0.21097 -1.4195,0.40275 -0.6522,0.1791 -1.5857,0.26865 -2.8006,0.26865 v 2.10993 h 1.0934 c 0.7034,0 1.1318,0.13456 1.2852,0.4029 0.1534,0.26849 0.2429,0.87586 0.2686,1.82225 v 8.8046 c -0.3709,0.9717 -1.0039,1.8222 -1.8991,2.5511 -0.8951,0.729 -1.8031,1.0934 -2.7238,1.0934 -1.3683,0 -2.3338,-0.4923 -2.8965,-1.4769 -0.2941,-0.5117 -0.4412,-1.4707 -0.4412,-2.8774 v -10.70352 c 0,-0.88236 -0.1087,-1.52174 -0.3261,-1.91814 -0.2174,-0.40924 -0.6522,-0.61386 -1.3043,-0.61386 -0.3325,0 -0.6139,0.0448 -0.844,0.13455 -0.2302,0.0773 -0.6139,0.21096 -1.151,0.40275 -0.5243,0.1791 -1.3747,0.26865 -2.5512,0.26865 v 2.10993 h 0.4988 c 0.7033,0 1.1317,0.14074 1.2852,0.42208 0.1662,0.28133 0.2493,0.88235 0.2493,1.80307 v 7.96059 c 0,2.3657 0.5371,4.1433 1.6113,5.3325 1.0742,1.1893 2.5768,1.784 4.5078,1.784 2.6726,0 4.8083,-1.1765 6.4068,-3.5296 0.4605,2.3525 1.8033,3.5287 4.0282,3.5287 1.0614,0 1.899,-0.2302 2.5128,-0.6904 v -1.8608 c -0.3069,0.1408 -0.6777,0.211 -1.1125,0.211 -0.8185,0 -1.33,-0.2814 -1.5346,-0.844 -0.1151,-0.2941 -0.1726,-1.0613 -0.1726,-2.3017 v -12.2765 c 0,-0.86967 -0.1151,-1.49622 -0.3453,-1.87994 -0.2174,-0.38357 -0.6522,-0.57535 -1.3044,-0.57535 z m -64.05497,7.7e-4 c -3.18421,0 -5.60113,1.01676 -7.25077,3.04997 -1.63688,2.02054 -2.4553,4.41809 -2.4553,7.19309 0,3.4017 0.98466,5.9784 2.95403,7.7304 1.67522,1.4961 3.70852,2.2444 6.09985,2.2444 2.40415,0 4.30316,-0.6075 5.69706,-1.8224 1.40665,-1.2148 2.11002,-2.6151 2.11002,-4.2009 h -2.62795 c -0.29414,1.1892 -0.82482,2.1038 -1.59209,2.7432 -0.76728,0.6393 -1.70081,0.959 -2.80057,0.959 -1.4962,0 -2.74304,-0.6585 -3.74049,-1.9758 -0.99747,-1.3171 -1.49619,-3.2736 -1.49619,-5.8697 0,-1.3939 0.12791,-2.5897 0.38363,-3.58692 0.75448,-2.83901 2.37855,-4.25837 4.87223,-4.25837 1.32994,0 2.36579,0.44745 3.10748,1.34264 -0.75448,0.49879 -1.13174,1.18921 -1.13174,2.07173 0,0.37073 0.064,0.7096 0.19181,1.0166 0.42202,1.03582 1.18931,1.55372 2.30185,1.55372 0.78007,0 1.41947,-0.2621 1.9182,-0.7864 0.51152,-0.53718 0.76727,-1.19574 0.76727,-1.97586 0,-1.59845 -0.69696,-2.90274 -2.09083,-3.913 -1.39389,-1.01027 -3.13306,-1.5154 -5.2175,-1.5154 z m 18.76637,0 c -3.18418,0 -5.60113,1.01676 -7.25079,3.04997 -1.63686,2.02054 -2.45529,4.41809 -2.45529,7.19309 0,3.4017 0.9847,5.9784 2.95402,7.7304 1.67524,1.4961 3.70853,2.2444 6.09987,2.2444 2.40413,0 4.30314,-0.6075 5.69699,-1.8224 1.4067,-1.2148 2.11,-2.6151 2.11,-4.2009 h -2.62786 c -0.29411,1.1892 -0.82481,2.1038 -1.5921,2.7432 -0.76729,0.6393 -1.70082,0.959 -2.80058,0.959 -1.4962,0 -2.74301,-0.6585 -3.74047,-1.9758 -0.99746,-1.3171 -1.49621,-3.2736 -1.49621,-5.8697 0,-1.3939 0.12791,-2.5897 0.38365,-3.58692 0.75448,-2.83901 2.37858,-4.25837 4.87223,-4.25837 1.32994,0 2.36575,0.44745 3.10748,1.34264 -0.75449,0.49879 -1.13174,1.18921 -1.13174,2.07173 0,0.37073 0.064,0.7096 0.19181,1.0166 0.422,1.03582 1.18929,1.55372 2.30184,1.55372 0.78005,0 1.41945,-0.2621 1.91815,-0.7864 0.5115,-0.53718 0.7673,-1.19574 0.7673,-1.97586 0,-1.59845 -0.6969,-2.90274 -2.0908,-3.913 -1.39388,-1.01027 -3.13305,-1.5154 -5.2175,-1.5154 z m 18.517,0 c -2.8006,0 -5.0449,0.844 -6.7329,2.532 -0.8568,0.85669 -1.5282,1.93733 -2.0141,3.24176 -0.4731,1.2916 -0.7097,2.7046 -0.7097,4.2392 0,3.0563 0.7992,5.5243 2.3977,7.4042 1.6113,1.867 3.9643,2.8007 7.059,2.8007 3.0947,0 5.4412,-0.9656 7.0397,-2.8966 1.5985,-1.931 2.3978,-4.4503 2.3978,-7.5576 0,-3.12037 -0.8696,-5.52447 -2.6087,-7.21248 -1.7264,-1.70084 -4.0027,-2.55118 -6.8288,-2.55118 z m 74.215,0 c -0.3452,0 -0.665,0.0448 -0.9591,0.13456 -0.2941,0.0773 -0.7992,0.2108 -1.5154,0.40274 -0.7161,0.17895 -1.7008,0.26865 -2.954,0.26865 v 2.10993 h 1.3811 c 0.7034,0 1.1317,0.14075 1.2852,0.42208 0.1663,0.28133 0.2494,0.88236 0.2494,1.80307 v 10.56923 c 0,0.3836 -0.032,0.7035 -0.096,0.9591 -0.064,0.2558 -0.2494,0.4988 -0.5563,0.7289 -0.2941,0.2175 -1.0358,0.3261 -2.2251,0.3261 v 2.1101 h 9.8787 v -2.1101 c -1.2149,0 -2.0397,-0.1661 -2.4745,-0.4987 -0.2557,-0.2046 -0.3836,-0.7097 -0.3836,-1.5154 v -13.25466 c 0,-0.85684 -0.1087,-1.47704 -0.3261,-1.86061 -0.2046,-0.3964 -0.6394,-0.59468 -1.3044,-0.59468 z m -28.2039,0.0186 c -0.5754,0 -1.1637,0.0696 -1.7647,0.21096 -1.8031,0.40924 -3.3888,1.18937 -4.7572,2.34022 0,-0.85684 -0.1087,-1.47704 -0.326,-1.86061 -0.2047,-0.39655 -0.6458,-0.59468 -1.3236,-0.59468 -0.3325,0 -0.6458,0.0448 -0.9399,0.13456 -0.2813,0.0773 -0.7673,0.21096 -1.4578,0.4029 -0.6778,0.17894 -1.6177,0.2685 -2.8198,0.2685 v 2.11008 h 1.1701 c 0.7161,0 1.1509,0.14074 1.3044,0.42192 0.1662,0.28133 0.2494,0.88236 0.2494,1.80307 v 10.45414 c 0,0.3837 -0.032,0.7034 -0.096,0.9591 -0.064,0.2558 -0.2366,0.4986 -0.518,0.7289 -0.2813,0.2173 -0.9718,0.3261 -2.0716,0.3261 v 2.11 h 9.7444 v -2.11 c -1.2404,0 -2.0844,-0.1726 -2.532,-0.5179 -0.2557,-0.2046 -0.3836,-0.7034 -0.3836,-1.4962 v -10.87606 c 1.3044,-1.30444 3.0051,-1.95665 5.1024,-1.95665 1.3427,0 2.3402,0.65221 2.9924,1.95665 0.3324,0.6649 0.4987,1.88628 0.4987,3.66366 v 7.1741 c 0,0.3835 -0.019,0.7032 -0.058,0.959 -0.038,0.2557 -0.1791,0.5052 -0.4221,0.7481 -0.2302,0.2302 -0.9271,0.3453 -2.0908,0.3453 v 2.11 h 9.0731 v -2.11 c -1.087,0 -1.752,-0.1284 -1.9949,-0.3836 -0.243,-0.2687 -0.3645,-0.8248 -0.3645,-1.6688 v -7.4234 c 0,-5.48608 -2.0717,-8.22905 -6.215,-8.22905 z m 47.5457,0 c -0.5754,0 -1.1637,0.0696 -1.7647,0.21096 -1.8031,0.40924 -3.3888,1.18937 -4.7571,2.34022 0,-0.85684 -0.1088,-1.47704 -0.3261,-1.86061 -0.2046,-0.39655 -0.6458,-0.59468 -1.3236,-0.59468 -0.3325,0 -0.6458,0.0448 -0.9399,0.13456 -0.2813,0.0773 -0.7673,0.21096 -1.4578,0.4029 -0.6778,0.17894 -1.6177,0.2685 -2.8198,0.2685 v 2.11008 h 1.1701 c 0.7161,0 1.1509,0.14074 1.3044,0.42192 0.1662,0.28133 0.2494,0.88236 0.2494,1.80307 v 10.45414 c 0,0.3837 -0.032,0.7034 -0.096,0.9591 -0.064,0.2558 -0.2366,0.4986 -0.5179,0.7289 -0.2814,0.2173 -0.9719,0.3261 -2.0717,0.3261 v 2.11 h 9.7444 v -2.11 c -1.2404,0 -2.0844,-0.1726 -2.532,-0.5179 -0.2557,-0.2046 -0.3836,-0.7034 -0.3836,-1.4962 v -10.87606 c 1.3044,-1.30444 3.0052,-1.95665 5.1024,-1.95665 1.3427,0 2.3402,0.65221 2.9924,1.95665 0.3325,0.6649 0.4987,1.88628 0.4987,3.66366 v 7.1741 c 0,0.3835 -0.019,0.7032 -0.057,0.959 -0.038,0.2557 -0.1791,0.5052 -0.422,0.7481 -0.2302,0.2302 -0.9272,0.3453 -2.0909,0.3453 v 2.11 h 9.0731 v -2.11 c -1.087,0 -1.752,-0.1284 -1.9949,-0.3836 -0.243,-0.2687 -0.3645,-0.8248 -0.3645,-1.6688 v -7.4234 c 0,-5.48608 -2.0716,-8.22905 -6.2149,-8.22905 z m 18.5938,2.09075 c 1.087,0 2.0013,0.4029 2.743,1.20854 0.7417,0.80565 1.1125,2.0524 1.1125,3.74037 0,0.908 -0.115,1.669 -0.3452,2.2827 -0.6522,1.7904 -1.8223,2.6856 -3.5103,2.6856 -1.0742,0 -2.0142,-0.4029 -2.8198,-1.2086 -0.7928,-0.8185 -1.1893,-2.046 -1.1893,-3.6829 0,-0.8951 0.1151,-1.66873 0.3453,-2.32095 0.665,-1.80307 1.8862,-2.70476 3.6638,-2.70476 z m -112.1506,0.19194 c 0.7289,0 1.4003,0.15311 2.0141,0.46028 1.9949,0.98474 2.9924,3.45287 2.9924,7.40419 0,2.4554 -0.4668,4.3607 -1.4003,5.7162 -0.9208,1.3557 -2.1228,2.0334 -3.6062,2.0334 -1.4834,0 -2.6919,-0.6777 -3.6254,-2.0334 -0.9208,-1.3555 -1.3811,-3.2993 -1.3811,-5.8313 0,-1.3171 0.1279,-2.468 0.3836,-3.45265 0.7161,-2.86453 2.2571,-4.29672 4.6229,-4.29672 z m 109.1198,17.43627 c 0.6266,0.1795 1.3747,0.3074 2.2443,0.3836 0.8696,0.077 1.8031,0.1666 2.8006,0.2687 3.1714,0.2941 4.7571,1.3683 4.7571,3.2225 0,0.5627 -0.1407,1.0678 -0.422,1.5154 -0.8696,1.4579 -2.6791,2.1867 -5.4285,2.1867 -1.7519,0 -3.165,-0.3517 -4.2392,-1.055 -1.0742,-0.7032 -1.6113,-1.7263 -1.6113,-3.0691 0,-1.624 0.633,-2.775 1.899,-3.4528 z" /><path
         id="path118"
         style="font-size:96px;line-height:1;font-family:'Arbutus Slab';-inkscape-font-specification:'Arbutus Slab';letter-spacing:0.5px;white-space:pre;fill:#3f4d59;fill-opacity:1;stroke-width:2.11667"
         d="m 902.36105,982.91787 c -0.34525,0 -0.67136,0.0446 -0.97827,0.13426 -0.30691,0.0767 -0.81843,0.21104 -1.53456,0.40284 -0.71612,0.17899 -1.70716,0.26856 -2.97319,0.26856 v 2.11 h 1.36191 c 0.71613,0 1.16373,0.14703 1.34272,0.44117 0.19184,0.2813 0.28776,0.87597 0.28776,1.78394 v 7.07816 c -1.48341,-1.43222 -3.26734,-2.14839 -5.3518,-2.14839 -2.7494,0 -4.91697,0.8824 -6.50268,2.6471 -1.5729,1.76474 -2.35937,4.43739 -2.35937,8.01809 0,2.9156 0.76728,5.2367 2.30183,6.963 1.54733,1.7264 3.63179,2.5896 6.2533,2.5896 2.62156,0 4.69321,-1.1382 6.21496,-3.4144 0.51156,2.2762 1.81594,3.4144 3.91313,3.4144 1.04865,0 1.87985,-0.2303 2.49367,-0.6906 v -1.8606 c -0.30691,0.1406 -0.67136,0.211 -1.09338,0.211 -0.83124,0 -1.35553,-0.2813 -1.5729,-0.844 -0.10231,-0.2941 -0.15346,-1.0614 -0.15346,-2.3018 v -22.34704 c 0,-0.85673 -0.10873,-1.47698 -0.3261,-1.86066 -0.20461,-0.39645 -0.64578,-0.59463 -1.32357,-0.59463 z m -22.51323,0.70974 c -0.81843,0 -1.52175,0.28768 -2.11003,0.8632 -0.58821,0.56267 -0.88235,1.25314 -0.88235,2.07166 0,0.80562 0.28776,1.48962 0.8632,2.05246 0.58824,0.54982 1.29794,0.82481 2.12918,0.82481 0.8312,0 1.53456,-0.27499 2.11,-0.82481 0.58833,-0.56284 0.88239,-1.24684 0.88239,-2.05246 0,-0.81852 -0.29406,-1.50899 -0.88239,-2.07166 -0.58821,-0.57552 -1.29157,-0.8632 -2.11,-0.8632 z m -60.03958,0.0385 c -1.5601,0 -2.99235,0.19818 -4.29677,0.59467 -2.53198,0.76724 -4.55886,2.12915 -6.08065,4.08573 -2.14838,2.73663 -3.22257,6.09993 -3.22257,10.08974 0,5.00005 1.39387,8.79805 4.18165,11.39405 2.40414,2.2507 5.29422,3.376 8.67025,3.376 3.37603,0 6.13823,-0.844 8.28661,-2.532 0.97189,-0.7544 1.7264,-1.6113 2.26349,-2.5704 0.5371,-0.9719 0.80563,-1.9566 0.80563,-2.954 h -2.76221 c -1.06138,3.7084 -3.60617,5.5628 -7.6344,5.5628 -2.40414,0 -4.45664,-1.0614 -6.15742,-3.1843 -1.70083,-2.1355 -2.55122,-5.2303 -2.55122,-9.28399 0,-4.0665 0.83763,-7.11008 2.51283,-9.13062 1.67525,-2.03331 3.8492,-3.04992 6.52187,-3.04992 2.67271,0 4.52695,0.99103 5.56279,2.97319 -0.46036,0.25572 -0.8312,0.62663 -1.11257,1.11258 -0.2813,0.47317 -0.42199,0.95907 -0.42199,1.45783 0,0.48594 0.0703,0.90788 0.211,1.26599 0.46036,1.13802 1.36191,1.7072 2.70466,1.7072 0.43475,0 0.83759,-0.0832 1.20846,-0.24937 1.25322,-0.54987 1.87985,-1.62406 1.87985,-3.22258 0,-2.13557 -0.99112,-3.90678 -2.97323,-5.31337 -1.98212,-1.41953 -4.51414,-2.12923 -7.59606,-2.12923 z m 28.29343,9.32164 c -0.33248,0 -0.6394,0.0454 -0.92073,0.13508 -0.28134,0.0767 -0.75451,0.21103 -1.41949,0.40283 -0.65216,0.17912 -1.58567,0.26853 -2.80055,0.26853 v 2.11004 h 1.09335 c 0.70336,0 1.13176,0.13422 1.28522,0.40283 0.15333,0.26848 0.24287,0.87592 0.26853,1.82228 v 8.80446 c -0.37083,0.9718 -1.00385,1.8222 -1.89901,2.5512 -0.89516,0.7289 -1.80312,1.0934 -2.72386,1.0934 -1.36829,0 -2.3338,-0.4923 -2.89647,-1.477 -0.2941,-0.5115 -0.44117,-1.4707 -0.44117,-2.8773 v -10.70351 c 0,-0.88243 -0.10869,-1.52175 -0.32611,-1.9182 -0.21741,-0.40913 -0.6522,-0.61382 -1.30437,-0.61382 -0.33249,0 -0.61382,0.0446 -0.84401,0.13426 -0.23018,0.0767 -0.61382,0.21103 -1.15091,0.40283 -0.52429,0.17912 -1.37472,0.26853 -2.55122,0.26853 v 2.11004 h 0.49876 c 0.70331,0 1.13172,0.1406 1.28518,0.42198 0.16626,0.28129 0.24937,0.88235 0.24937,1.80313 v 7.96046 c 0,2.3658 0.5371,4.1433 1.61129,5.3326 1.07419,1.1893 2.57679,1.7839 4.50775,1.7839 2.67271,0 4.80832,-1.1765 6.4068,-3.5295 0.46049,2.3525 1.80333,3.5287 4.02819,3.5287 1.06139,0 1.89901,-0.2302 2.51283,-0.6905 v -1.8607 c -0.30691,0.1407 -0.67778,0.211 -1.11253,0.211 -0.81843,0 -1.32995,-0.2813 -1.53456,-0.844 -0.11511,-0.2941 -0.17265,-1.0614 -0.17265,-2.3018 v -12.27646 c 0,-0.86962 -0.11507,-1.49613 -0.34525,-1.87981 -0.21738,-0.38356 -0.65221,-0.57548 -1.30438,-0.57548 z m 17.57707,0 c -2.4681,0 -4.41826,0.84405 -5.85051,2.53202 v -0.0567 c 0,-0.85685 -0.10869,-1.47698 -0.3261,-1.86066 -0.20461,-0.39637 -0.64579,-0.59463 -1.32353,-0.59463 -0.34529,0 -0.6714,0.0446 -0.97831,0.13426 -0.30691,0.0767 -0.81843,0.21104 -1.53456,0.40284 -0.71612,0.17907 -1.7072,0.26852 -2.97319,0.26852 v 2.11004 h 1.36191 c 0.71612,0 1.15096,0.14061 1.30437,0.42198 0.16626,0.2813 0.24938,0.88235 0.24938,1.80313 v 19.94915 c 0,0.3837 -0.0319,0.7034 -0.0959,0.9591 -0.0639,0.2558 -0.23657,0.4924 -0.51791,0.7098 -0.28133,0.2302 -0.97188,0.3452 -2.07165,0.3452 v 2.1101 h 10.72271 v -2.1101 c -1.73916,0 -2.82612,-0.1214 -3.26091,-0.3644 -0.42203,-0.2429 -0.63302,-0.8568 -0.63302,-1.8415 v -6.848 c 1.48341,1.4322 3.27373,2.1484 5.37095,2.1484 v 0 c 2.73663,0 4.8914,-0.9463 6.46434,-2.8389 1.58571,-1.9055 2.37856,-4.4439 2.37856,-7.6153 0,-3.17134 -0.76085,-5.58829 -2.28264,-7.25068 -1.52179,-1.67525 -3.52314,-2.51287 -6.00397,-2.51287 z m 14.66779,0 c -0.34521,0 -0.66497,0.0446 -0.95907,0.13426 -0.29415,0.0773 -0.79924,0.21087 -1.51537,0.40283 -0.71613,0.17895 -1.70082,0.26853 -2.95404,0.26853 v 2.11004 h 1.3811 c 0.70332,0 1.13172,0.14065 1.28518,0.42198 0.16626,0.28134 0.24938,0.88239 0.24938,1.80313 v 10.56918 c 0,0.3836 -0.0319,0.7035 -0.0959,0.9592 -0.0639,0.2558 -0.24934,0.4987 -0.55625,0.7288 -0.29414,0.2175 -1.03585,0.3261 -2.22511,0.3261 v 2.11 h 9.87871 v -2.11 c -1.21488,0 -2.0397,-0.1662 -2.47449,-0.4987 -0.25576,-0.2046 -0.38364,-0.7097 -0.38364,-1.5154 v -13.25466 c 0,-0.85685 -0.10869,-1.4771 -0.3261,-1.86066 -0.20461,-0.39641 -0.6394,-0.59463 -1.30438,-0.59463 z m 35.93423,0 c -2.80055,0 -5.04485,0.84401 -6.73286,2.53202 -0.85678,0.85677 -1.52814,1.93735 -2.01412,3.24176 -0.47313,1.29157 -0.7097,2.70457 -0.7097,4.23917 0,3.0563 0.79924,5.5244 2.39771,7.4042 1.61133,1.8671 3.96432,2.8006 7.05897,2.8006 3.09473,0 5.44134,-0.9655 7.03981,-2.8965 1.59848,-1.9309 2.39772,-4.4502 2.39772,-7.5577 0,-3.12018 -0.86958,-5.52433 -2.60875,-7.21234 -1.72636,-1.70082 -4.00262,-2.55121 -6.82878,-2.55121 z m -51.73374,2.30184 c 0.86958,0 1.62405,0.21737 2.26345,0.65216 1.79031,1.18926 2.68547,3.63179 2.68547,7.32745 0,2.3146 -0.4284,4.1689 -1.28518,5.5628 -0.85681,1.3812 -2.03969,2.0716 -3.54867,2.0716 -1.52175,0 -2.73659,-0.6777 -3.64456,-2.0332 -0.90796,-1.3555 -1.36195,-3.2097 -1.36195,-5.5628 0,-2.353 0.39645,-4.25831 1.1893,-5.71618 0.39641,-0.71608 0.89516,-1.2788 1.49618,-1.68801 0.60105,-0.40926 1.33637,-0.61382 2.20596,-0.61382 z m 30.40981,0 c 0.75451,0 1.44506,0.16618 2.07166,0.49871 1.95654,1.04865 2.93481,3.42718 2.93481,7.1356 0,2.4936 -0.42199,4.4502 -1.26599,5.8698 -0.83124,1.4067 -2.09085,2.1099 -3.77886,2.1099 -0.86958,0 -1.61129,-0.2173 -2.22511,-0.6521 -1.71359,-1.1894 -2.57036,-3.6319 -2.57036,-7.3276 0,-2.3145 0.42836,-4.16233 1.28518,-5.54347 0.85677,-1.39395 2.03969,-2.09084 3.54867,-2.09084 z m 21.32393,0 c 0.72893,0 1.40029,0.15345 2.01412,0.46036 1.99492,0.98466 2.99238,3.45276 2.99238,7.40415 0,2.4553 -0.46675,4.3608 -1.40029,5.7163 -0.92074,1.3555 -2.12281,2.0332 -3.60621,2.0332 -1.48341,0 -2.69186,-0.6777 -3.62536,-2.0332 -0.92074,-1.3555 -1.3811,-3.2993 -1.3811,-5.8313 0,-1.3172 0.12788,-2.4681 0.38363,-3.45275 0.71613,-2.86451 2.25707,-4.29676 4.62283,-4.29676 z" /></g><text
       xml:space="preserve"
       id="text144"
       style="font-style:normal;font-variant:normal;font-weight:normal;font-stretch:normal;font-size:25.4px;line-height:1;font-family:'Arbutus Slab';-inkscape-font-specification:'Arbutus Slab';letter-spacing:0.132292px;white-space:pre;display:inline;fill:#3f4d59;fill-opacity:1;stroke-width:8"
       transform="translate(-3.7990023e-5,3.1897623e-5)"><textPath
         xlink:href="#circle146"
         id="textPath146"><tspan
           id="tspan144"
           style="font-style:normal;font-variant:normal;font-weight:normal;font-stretch:normal;font-size:25.4px;font-family:'Arbutus Slab';-inkscape-font-specification:'Arbutus Slab';fill:#3f4d59;fill-opacity:1">Accounting Services</tspan></textPath></text><text
       xml:space="preserve"
       id="text145"
       style="font-style:normal;font-variant:normal;font-weight:normal;font-stretch:normal;font-size:35.2778px;line-height:1;font-family:'Arbutus Slab';-inkscape-font-specification:'Arbutus Slab';letter-spacing:0.132292px;white-space:pre;display:inline;fill:#3f4d59;fill-opacity:1;stroke-width:8"><textPath
         xlink:href="#path143"
         id="textPath145"><tspan
           id="tspan145"
           style="font-style:normal;font-variant:normal;font-weight:normal;font-stretch:normal;font-size:35.2778px;font-family:'Arbutus Slab';-inkscape-font-specification:'Arbutus Slab';fill:#3f4d59;fill-opacity:1">Cupido</tspan></textPath></text><text
       xml:space="preserve"
       id="text155"
       style="font-style:normal;font-variant:normal;font-weight:normal;font-stretch:normal;font-size:25.4px;line-height:1;font-family:'Arbutus Slab';-inkscape-font-specification:'Arbutus Slab';letter-spacing:0.132292px;white-space:pre;display:inline;fill:#3f4d59;fill-opacity:1;stroke-width:8"
       transform="translate(307.57809,3.1897623e-5)"><textPath
         xlink:href="#circle146"
         id="textPath155"><tspan
           id="tspan155"
           style="font-style:normal;font-variant:normal;font-weight:normal;font-stretch:normal;font-size:25.4px;font-family:'Arbutus Slab';-inkscape-font-specification:'Arbutus Slab';fill:#3f4d59;fill-opacity:1">Accounting Services</tspan></textPath></text><text
       xml:space="preserve"
       id="text168"
       style="font-style:normal;font-variant:normal;font-weight:normal;font-stretch:normal;font-size:25.4px;line-height:1;font-family:'Arbutus Slab';-inkscape-font-specification:'Arbutus Slab';letter-spacing:0.132292px;white-space:pre;display:inline;fill:#3f4d59;fill-opacity:1;stroke-width:25.4"
       transform="matrix(0.31496064,0,0,0.31496064,551.56566,1274.4541)"><textPath
         xlink:href="#circle146"
         id="textPath168"
         style="stroke-width:25.4"><tspan
           id="tspan168"
           style="font-style:normal;font-variant:normal;font-weight:normal;font-stretch:normal;font-size:25.4px;font-family:'Arbutus Slab';-inkscape-font-specification:'Arbutus Slab';fill:#3f4d59;fill-opacity:1;stroke-width:25.4">Accounting Services</tspan></textPath></text><text
       xml:space="preserve"
       id="text169"
       style="font-style:normal;font-variant:normal;font-weight:normal;font-stretch:normal;font-size:35.2778px;line-height:1;font-family:'Arbutus Slab';-inkscape-font-specification:'Arbutus Slab';letter-spacing:0.132292px;white-space:pre;display:inline;fill:#3f4d59;fill-opacity:1;stroke-width:25.4"
       transform="matrix(0.31496064,0,0,0.31496064,551.56568,1274.454)"><textPath
         xlink:href="#path143"
         id="textPath169"
         style="stroke-width:25.4"><tspan
           id="tspan169"
           style="font-style:normal;font-variant:normal;font-weight:normal;font-stretch:normal;font-size:35.2778px;font-family:'Arbutus Slab';-inkscape-font-specification:'Arbutus Slab';fill:#3f4d59;fill-opacity:1;stroke-width:25.4">Cupido</tspan></textPath></text></g></svg>
