<?xml version="1.0" encoding="UTF-8" standalone="no"?>
<!-- Created with Inkscape (http://www.inkscape.org/) -->

<svg
   width="210.01302mm"
   height="210.01303mm"
   viewBox="0 0 210.01302 210.01303"
   version="1.1"
   id="svg1"
   xml:space="preserve"
   xmlns:xlink="http://www.w3.org/1999/xlink"
   xmlns="http://www.w3.org/2000/svg"
   xmlns:svg="http://www.w3.org/2000/svg"><defs
     id="defs1" /><g
     id="layer4"
     transform="translate(-474.44903,-1952.1398)"><circle
       style="opacity:1;fill:none;fill-opacity:1;stroke-width:2.11667"
       id="path165"
       cx="579.45544"
       cy="2057.1462"
       r="105.00651" /><circle
       style="opacity:0.5;fill:none;fill-opacity:1;stroke-width:2.11668"
       id="circle146"
       cx="-260.97385"
       cy="2121.2053"
       r="88.746635"
       transform="matrix(-0.98844758,0.15156316,0.15156316,0.98844758,0,0)" /><circle
       style="fill:none;fill-opacity:1;stroke-width:2.11667"
       id="path143"
       cx="-1750.0702"
       cy="-1226.733"
       r="69.453117"
       transform="rotate(-140.76043)" /><text
       xml:space="preserve"
       id="text144"
       style="font-style:normal;font-variant:normal;font-weight:normal;font-stretch:normal;font-size:25.4px;line-height:1;font-family:'Arbutus Slab';-inkscape-font-specification:'Arbutus Slab';letter-spacing:0.132292px;white-space:pre;display:inline;fill:#3f4d59;fill-opacity:1;stroke-width:8"
       transform="translate(-3.7990023e-5,3.1897623e-5)"><textPath
         xlink:href="#circle146"
         id="textPath146"><tspan
           id="tspan144"
           style="font-style:normal;font-variant:normal;font-weight:normal;font-stretch:normal;font-size:25.4px;font-family:'Arbutus Slab';-inkscape-font-specification:'Arbutus Slab';fill:#3f4d59;fill-opacity:1">Accounting Services</tspan></textPath></text><text
       xml:space="preserve"
       id="text145"
       style="font-style:normal;font-variant:normal;font-weight:normal;font-stretch:normal;font-size:35.2778px;line-height:1;font-family:'Arbutus Slab';-inkscape-font-specification:'Arbutus Slab';letter-spacing:0.132292px;white-space:pre;display:inline;fill:#3f4d59;fill-opacity:1;stroke-width:8"><textPath
         xlink:href="#path143"
         id="textPath145"><tspan
           id="tspan145"
           style="font-style:normal;font-variant:normal;font-weight:normal;font-stretch:normal;font-size:35.2778px;font-family:'Arbutus Slab';-inkscape-font-specification:'Arbutus Slab';fill:#3f4d59;fill-opacity:1">Cupido</tspan></textPath></text><g
       id="g154"
       transform="matrix(1.2839312,0,0,1.2739717,220.86546,966.48776)"
       style="stroke-width:0.781895"><path
         style="fill:#a792c1;fill-opacity:1;stroke-width:0.781895"
         d="m 284.65795,842.91139 c -0.097,-0.097 -0.17638,-1.1965 -0.17638,-2.4433 v -2.26691 l -0.59532,1.10968 c -0.78382,1.46107 -2.54086,3.29403 -3.06148,3.19377 -0.76091,-0.14653 -2.7144,-6.16236 -3.79399,-11.68368 -0.4437,-2.26922 -0.57443,-3.8896 -0.56861,-7.04775 0.009,-4.76123 0.58219,-7.90546 1.92794,-10.57137 0.83382,-1.6518 3.12617,-4.1543 3.46715,-3.78501 0.62761,0.67973 3.20842,9.67542 3.57014,12.44409 0.10023,0.76725 0.2723,1.45066 0.38237,1.51869 0.11007,0.068 0.40152,-0.5002 0.64766,-1.26271 0.90244,-2.79566 2.68,-6.13131 4.08275,-7.66139 1.237,-1.3493 3.76149,-3.11772 4.45065,-3.11772 0.41425,0 0.63415,7.19742 0.33746,11.04529 -0.14862,1.92757 -0.44907,4.36835 -0.66767,5.42396 -0.86995,4.20103 -2.91632,9.38691 -4.55838,11.55178 -1.83815,2.42342 -4.70363,4.29324 -5.44429,3.55258 z"
         id="path146" /><path
         style="fill:#a2c8e8;fill-opacity:1;stroke-width:0.781895"
         d="m 267.94511,844.45484 c -4.3645,-2.32521 -5.54107,-3.0144 -7.64879,-4.48036 -2.62174,-1.82348 -3.28052,-2.37742 -5.58038,-4.69238 -3.91848,-3.9442 -5.72898,-6.79471 -6.40962,-10.09153 -0.49987,-2.42115 -0.34059,-3.53404 0.5058,-3.53404 1.1777,0 9.54459,4.81286 12.36769,7.11422 l 1.17221,0.95558 -0.82332,-1.5875 c -2.26985,-4.37666 -3.11357,-7.43486 -2.90216,-10.5193 0.13759,-2.00745 0.65513,-3.37133 1.27929,-3.37133 0.75661,0 6.02984,5.11749 8.86064,8.59896 2.64031,3.2472 5.05519,7.58774 6.34341,11.40172 1.23224,3.64828 1.09098,8.80075 -0.24835,9.05868 -0.2848,0.0548 -1.20441,-0.56273 -2.33758,-1.56984 -1.46778,-1.30448 -1.82376,-1.52198 -1.66126,-1.01499 0.74932,2.3378 0.83551,3.99812 0.23852,4.59511 -0.22868,0.22868 -0.49657,0.41349 -0.59532,0.4107 -0.0987,-0.003 -1.2511,-0.57596 -2.56078,-1.2737 z"
         id="path147" /><path
         style="fill:#a2c8e8;fill-opacity:1;stroke-width:0.781895"
         d="m 293.77393,851.02462 c -0.79013,-0.18653 -1.33865,-0.62354 -1.35081,-1.07619 -0.002,-0.0829 0.40629,-0.6302 0.90781,-1.21612 l 0.91187,-1.06532 -1.9702,0.12644 -1.9702,0.12644 v -0.70106 c 0,-0.83567 2.51768,-5.76507 4.54717,-8.90298 3.90948,-6.04465 9.18673,-11.06751 13.64388,-12.98617 1.48112,-0.63758 4.74798,-1.06474 5.43573,-0.71076 0.33844,0.1742 0.4249,0.41201 0.29957,0.82406 -0.19735,0.64886 -1.6103,3.52873 -2.42607,4.94482 -0.29341,0.50933 -0.95713,1.66813 -1.47493,2.57513 -0.5178,0.90699 -1.26087,2.06785 -1.65126,2.57968 -0.3904,0.51184 -0.61128,0.93061 -0.49086,0.93061 0.12043,0 1.21544,-0.42799 2.43335,-0.9511 2.65302,-1.13949 5.87636,-1.75799 7.95583,-1.52656 1.58411,0.17629 3.21472,0.72234 3.21044,1.0751 -0.004,0.34604 -1.75863,2.46551 -3.63707,4.39381 -5.4219,5.56582 -12.22064,9.97294 -17.44706,11.30963 -2.07462,0.5306 -5.25385,0.64559 -6.92719,0.25054 z"
         id="path148" /><path
         style="fill:#a792c1;fill-opacity:1;stroke-width:0.781895"
         d="m 240.93366,858.32103 c -2.50225,-0.56852 -5.509,-1.93269 -6.83777,-3.10232 -1.637,-1.44095 -1.58211,-1.89828 0.31328,-2.61005 2.61897,-0.9835 7.49317,-2.30036 10.35811,-2.79844 l 2.75133,-0.47833 -1.693,-0.5538 c -4.8116,-1.57392 -10.01064,-5.79895 -9.71246,-7.8929 0.0708,-0.49691 0.3169,-0.60466 1.80175,-0.78875 2.40103,-0.29767 9.95274,-0.0219 12.96458,0.47349 3.2866,0.54054 7.25283,1.77125 10.05417,3.11976 1.72186,0.82887 2.68466,1.52097 4.10797,2.953 1.02245,1.02872 2.02577,2.27301 2.2296,2.7651 0.33758,0.81499 0.32657,0.9269 -0.12364,1.2561 -0.31634,0.23131 -1.26173,0.36639 -2.62648,0.37527 -2.08825,0.0136 -2.11873,0.0231 -1.47704,0.46302 1.09855,0.75306 2.39304,1.94949 2.67079,2.46847 0.21645,0.40443 0.11725,0.58022 -0.55975,0.99193 -1.02496,0.62331 -6.35285,2.19371 -10.04229,2.95997 -3.56206,0.73981 -11.67351,0.96776 -14.17915,0.39848 z"
         id="path149" /><path
         style="fill:#ebe6a2;fill-opacity:1;stroke-width:0.781895"
         d="m 277.93313,864.61785 c -0.90951,-0.21999 -1.65365,-0.51081 -1.65365,-0.64627 0,-0.13546 -0.1538,-0.2463 -0.34178,-0.2463 -0.61556,0 -2.52727,-2.21716 -3.21926,-3.73362 -1.31727,-2.88669 -0.71193,-6.32384 1.52485,-8.65822 1.29823,-1.35488 3.69733,-2.41494 5.47578,-2.4195 3.22341,-0.008 6.75263,2.74936 7.64864,5.97642 1.323,4.76491 -1.78275,9.29515 -6.85489,9.99896 -0.50933,0.0707 -1.67019,-0.0515 -2.57969,-0.27147 z"
         id="path150" /><path
         style="fill:#acd09d;fill-opacity:1;stroke-width:0.781895"
         d="m 312.92428,871.93608 c -7.04032,-0.6334 -13.28254,-2.63101 -17.03427,-5.45123 -1.82057,-1.36854 -3.55783,-3.72387 -3.42729,-4.6466 0.0789,-0.55763 0.25646,-0.64105 1.61517,-0.7588 l 1.52654,-0.13229 -1.19351,-0.92604 c -1.14899,-0.8915 -1.68288,-1.81092 -1.35738,-2.33759 0.16501,-0.267 5.75202,-2.10307 8.62594,-2.83477 3.0261,-0.77045 6.38947,-1.16802 9.92188,-1.17285 5.2462,-0.007 9.03606,0.85477 11.76196,2.67506 1.77585,1.18586 2.49319,2.0435 2.24663,2.68602 -0.23492,0.6122 -7.74619,2.90663 -11.49505,3.51134 -1.12502,0.18147 -1.15418,0.20705 -0.52917,0.46425 4.84895,1.99537 7.30729,3.59058 8.95495,5.81082 1.1427,1.5398 1.46136,2.42914 1.00576,2.80697 -0.42524,0.35266 -7.75543,0.56363 -10.62216,0.30571 z"
         id="path151" /><path
         style="fill:#acd09d;fill-opacity:1;stroke-width:0.781895"
         d="m 245.32323,887.29634 c 0,-1.32743 5.01815,-10.32293 6.70278,-12.01534 0.8029,-0.80662 0.31993,-0.78788 -1.34414,0.0521 -3.1082,1.56902 -4.93802,2.01531 -8.26906,2.01681 -3.25263,10e-4 -4.23333,-0.27657 -4.23333,-1.20021 0,-0.69974 5.31681,-6.17631 8.34652,-8.59732 5.2171,-4.16893 10.46703,-6.76203 15.006,-7.41192 1.76462,-0.25266 4.56883,0.0919 5.25228,0.6453 0.74077,0.59983 0.55089,1.15001 -0.95365,2.76331 -0.65605,0.70346 -1.19282,1.3113 -1.19282,1.35073 0,0.0394 0.98227,0.0592 2.18282,0.0439 2.07775,-0.0265 2.18691,10e-4 2.26807,0.57292 0.11466,0.80791 -2.6748,6.01911 -5.31072,9.92136 -5.25273,7.7762 -11.80335,12.62894 -17.04756,12.62894 -1.37777,0 -1.40719,-0.0161 -1.40719,-0.77061 z"
         id="path152" /><path
         style="fill:#a792c1;fill-opacity:1;stroke-width:0.781895"
         d="m 297.03012,896.03918 c -9.6302,-8.57245 -15.11704,-19.57826 -13.04298,-26.16233 0.2046,-0.64949 0.42309,-0.8599 0.89292,-0.8599 0.34212,0 0.78475,0.14883 0.98361,0.33073 0.19886,0.1819 0.65663,0.59402 1.01727,0.91583 l 0.6557,0.5851 -0.006,-1.47817 c -0.01,-2.31533 0.30167,-2.35638 3.94954,-0.52074 3.29561,1.65837 8.55097,5.05037 10.45474,6.74786 0.64972,0.57932 1.29319,0.98415 1.42995,0.89963 0.13675,-0.0845 0.17919,-0.0413 0.0943,0.096 -0.0849,0.13735 0.62249,1.01895 1.57194,1.95911 3.09853,3.06822 5.11221,6.588 5.68191,9.93161 0.33709,1.97841 0.23424,2.67031 -0.4351,2.92716 -0.54519,0.20921 -6.19916,-2.68073 -9.20465,-4.70481 -1.49616,-1.00761 -2.30103,-1.42161 -2.16527,-1.11374 0.11885,0.2695 0.57419,1.50204 1.01187,2.73896 1.3153,3.71716 1.24943,9.46813 -0.11145,9.73018 -0.22882,0.0441 -1.47898,-0.86608 -2.77812,-2.02253 z"
         id="path153" /><path
         style="fill:#a2c8e8;fill-opacity:1;stroke-width:0.781895"
         d="m 276.60113,902.2883 c -0.61606,-1.23508 -2.44663,-7.47573 -2.87724,-9.80888 -0.51309,-2.78005 -0.75198,-3.24708 -1.0185,-1.99122 -0.29857,1.40689 -2.24991,4.96341 -3.63914,6.63275 -1.1514,1.38355 -3.55528,3.10805 -4.34127,3.11435 -0.52824,0.004 -0.67432,-1.47279 -0.66399,-6.71371 0.0153,-7.77455 0.9652,-12.60048 3.49853,-17.7744 1.48005,-3.02278 3.49397,-5.44466 5.36262,-6.44893 1.64588,-0.88454 2.03442,-0.55309 2.03442,1.73546 0,0.94854 0.11586,1.6874 0.26459,1.6874 0.14552,0 0.26458,-0.0976 0.26458,-0.21696 0,-0.46324 1.91891,-2.42888 2.37114,-2.42888 0.57699,0 1.25881,1.57525 2.4028,5.55138 2.26342,7.86684 2.7281,16.40373 1.14859,21.10138 -0.73155,2.1757 -1.69883,3.92198 -2.80194,5.05851 -1.21363,1.25039 -1.58538,1.34341 -2.00519,0.50175 z"
         id="path154" /></g><text
       xml:space="preserve"
       id="text155"
       style="font-style:normal;font-variant:normal;font-weight:normal;font-stretch:normal;font-size:25.4px;line-height:1;font-family:'Arbutus Slab';-inkscape-font-specification:'Arbutus Slab';letter-spacing:0.132292px;white-space:pre;display:inline;fill:#3f4d59;fill-opacity:1;stroke-width:8"
       transform="translate(307.57809,3.1897623e-5)"><textPath
         xlink:href="#circle146"
         id="textPath155"><tspan
           id="tspan155"
           style="font-style:normal;font-variant:normal;font-weight:normal;font-stretch:normal;font-size:25.4px;font-family:'Arbutus Slab';-inkscape-font-specification:'Arbutus Slab';fill:#3f4d59;fill-opacity:1">Accounting Services</tspan></textPath></text></g></svg>
